<?xml version="1.0" encoding="UTF-8" standalone="no"?>
<svg
   xmlns:dc="http://purl.org/dc/elements/1.1/"
   xmlns:cc="http://creativecommons.org/ns#"
   xmlns:rdf="http://www.w3.org/1999/02/22-rdf-syntax-ns#"
   xmlns:svg="http://www.w3.org/2000/svg"
   xmlns="http://www.w3.org/2000/svg"
   xmlns:xlink="http://www.w3.org/1999/xlink"
   xmlns:sodipodi="http://sodipodi.sourceforge.net/DTD/sodipodi-0.dtd"
   xmlns:inkscape="http://www.inkscape.org/namespaces/inkscape"
   width="320"
   height="320"
   viewBox="0 0 84.666665 84.666669"
   version="1.1"
   id="svg8"
   sodipodi:docname="icon.svg"
   inkscape:export-filename="/home/dmillar/Dropbox/My Projects/comedy-houston/icon.png"
   inkscape:export-xdpi="153.60001"
   inkscape:export-ydpi="153.60001"
   inkscape:version="1.0.1 (3bc2e813f5, 2020-09-07)">
  <defs
     id="defs2">
    <linearGradient
       inkscape:collect="always"
       id="linearGradient4537">
      <stop
         style="stop-color:#f0e68c;stop-opacity:1"
         offset="0"
         id="stop4533" />
      <stop
         style="stop-color:#fdab19;stop-opacity:1"
         offset="1"
         id="stop4535" />
    </linearGradient>
    <radialGradient
       inkscape:collect="always"
       xlink:href="#linearGradient4537"
       id="radialGradient864-3"
       cx="32.976952"
       cy="274.95798"
       fx="32.976952"
       fy="274.95798"
       r="46.504898"
       gradientTransform="matrix(4.0630903,0.02460816,-0.02360825,3.8974779,60.694671,-891.21118)"
       gradientUnits="userSpaceOnUse" />
  </defs>
  <sodipodi:namedview
     id="base"
     pagecolor="#ffffff"
     bordercolor="#666666"
     borderopacity="1.0"
     inkscape:pageopacity="0.0"
     inkscape:pageshadow="2"
     inkscape:zoom="1"
     inkscape:cx="100.16107"
     inkscape:cy="49.420066"
     inkscape:document-units="px"
     inkscape:current-layer="layer1"
     showgrid="false"
     units="px"
     inkscape:pagecheckerboard="true"
     borderlayer="true"
     inkscape:object-paths="true"
     inkscape:snap-smooth-nodes="true"
     inkscape:window-width="1280"
     inkscape:window-height="971"
     inkscape:window-x="0"
     inkscape:window-y="0"
     inkscape:window-maximized="1"
     inkscape:document-rotation="0">
    <inkscape:grid
       type="xygrid"
       id="grid4518" />
  </sodipodi:namedview>
  <metadata
     id="metadata5">
    <rdf:RDF>
      <cc:Work
         rdf:about="">
        <dc:format>image/svg+xml</dc:format>
        <dc:type
           rdf:resource="http://purl.org/dc/dcmitype/StillImage" />
        <dc:title />
      </cc:Work>
    </rdf:RDF>
  </metadata>
  <g
     inkscape:label="Layer 1"
     inkscape:groupmode="layer"
     id="layer1"
     transform="translate(0,-212.33332)">
    <rect
       style="opacity:1;vector-effect:none;fill:#000000;fill-opacity:1;fill-rule:evenodd;stroke:none;stroke-width:0.264583px;stroke-linecap:butt;stroke-linejoin:miter;stroke-miterlimit:4;stroke-dasharray:none;stroke-dashoffset:0;stroke-opacity:1;paint-order:markers stroke fill"
       id="rect4531"
       width="93.009796"
       height="92.475258"
       x="-4.0090427"
       y="208.53377" />
    <path
       id="path4622"
       style="color:#000000;font-variation-settings:normal;overflow:visible;opacity:1;vector-effect:none;fill:#fdab19;fill-opacity:1;fill-rule:evenodd;stroke:none;stroke-width:0.264583px;stroke-linecap:butt;stroke-linejoin:miter;stroke-miterlimit:4;stroke-dasharray:none;stroke-dashoffset:0;stroke-opacity:1;marker:none;paint-order:markers stroke fill;stop-color:#000000;stop-opacity:1"
       d="m 54.225631,224.00907 a 13.229166,13.229166 0 0 0 -13.215215,13.22917 13.229166,13.229166 0 0 0 13.229166,13.22917 13.229166,13.229166 0 0 0 13.229167,-13.22917 13.229166,13.229166 0 0 0 -13.229167,-13.22917 13.229166,13.229166 0 0 0 -0.01395,0 z M 40.368595,244.92149 25.135416,266.9248 c 2.021438,2.57399 4.157255,4.47199 6.623367,4.41523 L 50.461517,252.6373 a 15.874992,15.874992 0 0 1 -10.092922,-7.71581 z m -14.93139,25.49612 c -1.303189,1.67648 -2.83841,3.80612 -4.194575,6.14174 -1.526329,2.62867 -2.827445,5.48684 -3.232361,8.25376 -0.404914,2.76692 0.187991,5.56951 2.478918,7.47862 2.177637,1.8147 4.685906,2.55412 7.255372,2.64273 2.569464,0.0886 5.219745,-0.43717 7.900811,-1.10743 5.362127,-1.34054 10.874475,-3.23924 15.816087,-2.62154 4.995468,0.62443 10.533343,3.51821 14.765507,6.2854 4.232164,2.76718 7.152534,5.36143 7.152534,5.36143 l 1.406117,-1.58233 c 0,0 -3.031206,-2.69742 -7.397998,-5.55263 -4.366795,-2.85521 -10.074743,-5.91456 -15.662611,-6.61304 -5.641721,-0.70522 -11.372098,1.36431 -16.593301,2.66961 -2.610602,0.65265 -5.088692,1.12011 -7.314798,1.04335 -2.226109,-0.0768 -4.181649,-0.66025 -5.972762,-2.15285 -1.677821,-1.39819 -2.077105,-3.22683 -1.737879,-5.54488 0.339225,-2.31804 1.518579,-5.00011 2.96881,-7.49773 1.272839,-2.19211 2.725733,-4.21294 3.970817,-5.82032 -0.549151,-0.38489 -1.084355,-0.85218 -1.608688,-1.38389 z" />
  </g>
</svg>
